<svg width="128" height="128" viewBox="0 0 128 128" fill="none" xmlns="http://www.w3.org/2000/svg">
<rect width="128" height="128" fill="white"/>
<path d="M100.686 105.973C101.775 106.155 102.806 105.419 102.988 104.33C103.17 103.24 102.435 102.209 101.345 102.027L100.686 105.973ZM86.0115 16.3636L86.735 14.4991L86.6115 14.4512L86.4828 14.42L86.0115 16.3636ZM110.753 52L112.087 53.49L112.179 53.4077L112.26 53.3147L110.753 52ZM95.3924 25.4545L93.5621 26.2608L93.5707 26.2804L93.5798 26.2998L95.3924 25.4545ZM116.188 35.6364L117.55 34.171L117.485 34.1107L117.415 34.0563L116.188 35.6364ZM116.376 45.0909L118.024 46.2237L118.064 46.1662L118.099 46.106L116.376 45.0909ZM117.875 42.5455L119.599 43.5606L119.668 43.4424L119.721 43.3158L117.875 42.5455ZM118.634 40.7273L120.48 41.4976L120.508 41.4312L120.531 41.363L118.634 40.7273ZM73.6408 21.4545L71.8631 20.5382L71.8222 20.6175L71.7885 20.7001L73.6408 21.4545ZM77.0146 17.8182L76.1418 16.0187L76.0315 16.0722L75.9285 16.1388L77.0146 17.8182ZM103.63 30.5455L103.823 28.5548L103.815 28.554L103.806 28.5532L103.63 30.5455ZM87.1361 86.1818L89.1197 85.9262L89.1125 85.8701L89.1021 85.8145L87.1361 86.1818ZM88.2607 94.9091L86.2771 95.1647L86.2844 95.2214L86.2949 95.2775L88.2607 94.9091ZM89.0105 98.9091L90.9802 98.5624L90.9783 98.5515L90.9762 98.5406L89.0105 98.9091ZM114.876 47.2727L116.384 48.5874L116.459 48.5005L116.525 48.4055L114.876 47.2727ZM117.816 37.1482L119.177 35.6828L117.816 37.1482ZM76.7671 17.9782L77.8532 19.6577L76.7671 17.9782ZM81.7741 16.1862L81.3526 14.2311L81.7741 16.1862ZM89.7734 101.706L91.4764 100.658L89.7734 101.706ZM89.3031 100.572L87.3334 100.918L89.3031 100.572ZM89.6709 101.54L87.9679 102.589L89.6709 101.54ZM118.687 40.5688L120.584 41.2045L118.687 40.5688ZM90.9341 18.5804L92.0233 16.9031L90.9341 18.5804ZM93.9004 22.0673L92.0701 22.8736L93.9004 22.0673ZM90.5943 102.259L90.924 100.286L90.5943 102.259ZM99.9913 30.2245L99.8156 32.2168L99.9913 30.2245ZM90.6428 18.3913L91.732 16.7139L90.6428 18.3913ZM88.7791 17.4375L89.5025 15.5729L88.7791 17.4375ZM86.7813 84.2833L84.8154 84.6506L86.7813 84.2833ZM96.4641 27.7529L94.6515 28.5982L96.4641 27.7529ZM113.911 33.8693L112.685 35.4494L113.911 33.8693ZM99.0866 61.8037L98.1084 60.0593L99.0866 61.8037ZM102.646 59.2591L101.312 57.7692L102.646 59.2591ZM74.9778 19.4303L73.5853 17.9948L74.9778 19.4303ZM73.5861 21.5889L75.4383 22.3433L73.5861 21.5889ZM106.168 30.7916L105.975 32.7823L106.168 30.7916ZM8.42262 104H10.4226C10.4226 103.268 8.11056 87.2624 14.3326 70.2113C17.4251 61.7367 22.613 53.0872 31.2231 46.052C39.828 39.0211 51.9634 33.5103 69.102 31.4825L68.867 29.4964L68.632 27.5102C50.8492 29.6142 37.9684 35.3751 28.6922 42.9545C19.4214 50.5295 13.8633 59.8289 10.575 68.8401C7.2911 77.8394 6.26135 86.5739 6.04652 93.0936C5.93894 96.3584 6.03533 99.0806 6.15928 101.019C6.22128 101.989 6.29015 102.762 6.34368 103.308C6.37036 103.58 6.39324 103.796 6.40872 103.943C6.43405 104.184 6.42262 104.111 6.42262 104H8.42262ZM99.0866 61.8037L98.1084 60.0593L95.6805 61.4208L96.6588 63.1652L97.637 64.9097L100.065 63.5482L99.0866 61.8037ZM90.5943 102.259L90.2647 104.231L100.686 105.973L101.015 104L101.345 102.027L90.924 100.286L90.5943 102.259ZM93.9004 22.0673L92.0701 22.8736L93.5621 26.2608L95.3924 25.4545L97.2227 24.6483L95.7307 21.2611L93.9004 22.0673ZM110.753 52L109.419 50.51L101.312 57.7692L102.646 59.2591L103.98 60.7491L112.087 53.49L110.753 52ZM117.875 42.5455L116.152 41.5303L114.653 44.0758L116.376 45.0909L118.099 46.106L119.599 43.5606L117.875 42.5455ZM118.634 40.7273L116.789 39.9569L116.03 41.7751L117.875 42.5455L119.721 43.3158L120.48 41.4976L118.634 40.7273ZM118.687 40.5688L116.791 39.9331L116.738 40.0916L118.634 40.7273L120.531 41.363L120.584 41.2045L118.687 40.5688ZM73.6408 21.4545L75.4185 22.3709L75.7934 21.6436L74.0157 20.7273L72.2379 19.8109L71.8631 20.5382L73.6408 21.4545ZM103.63 30.5455L103.437 32.5361L105.975 32.7823L106.168 30.7916L106.361 28.801L103.823 28.5548L103.63 30.5455ZM113.911 33.8693L112.685 35.4494L114.962 37.2164L116.188 35.6364L117.415 34.0563L115.138 32.2893L113.911 33.8693ZM86.7813 84.2833L84.8154 84.6506L85.1701 86.5492L87.1361 86.1818L89.1021 85.8145L88.7473 83.9159L86.7813 84.2833ZM87.1361 86.1818L85.1525 86.4374L86.2771 95.1647L88.2607 94.9091L90.2443 94.6535L89.1197 85.9262L87.1361 86.1818ZM88.2607 94.9091L86.2949 95.2775L87.0447 99.2775L89.0105 98.9091L90.9762 98.5406L90.2265 94.5406L88.2607 94.9091ZM89.0105 98.9091L87.0407 99.2558L87.3334 100.918L89.3031 100.572L91.2728 100.225L90.9802 98.5624L89.0105 98.9091ZM89.6709 101.54L87.9679 102.589L88.0704 102.755L89.7734 101.706L91.4764 100.658L91.374 100.491L89.6709 101.54ZM90.6428 18.3913L89.5536 20.0687L89.8449 20.2578L90.9341 18.5804L92.0233 16.9031L91.732 16.7139L90.6428 18.3913ZM86.0115 16.3636L85.288 18.2282L88.0556 19.3021L88.7791 17.4375L89.5025 15.5729L86.735 14.4991L86.0115 16.3636ZM77.0146 17.8182L77.8874 19.6177L78.6371 19.2541L77.7643 17.4545L76.8915 15.655L76.1418 16.0187L77.0146 17.8182ZM80.8929 16.3761L81.3144 18.3312L82.1955 18.1413L81.7741 16.1862L81.3526 14.2311L80.4715 14.421L80.8929 16.3761ZM76.7671 17.9782L77.8532 19.6577L78.1007 19.4976L77.0146 17.8182L75.9285 16.1388L75.681 16.2988L76.7671 17.9782ZM73.5861 21.5889L75.4383 22.3433L75.493 22.209L73.6408 21.4545L71.7885 20.7001L71.7338 20.8344L73.5861 21.5889ZM74.9778 19.4303L76.3704 20.8659L76.5328 20.7083L75.1403 19.2727L73.7477 17.8372L73.5853 17.9948L74.9778 19.4303ZM85.475 16.2335L85.0037 18.1772L85.5401 18.3073L86.0115 16.3636L86.4828 14.42L85.9464 14.2899L85.475 16.2335ZM99.9913 30.2245L99.8156 32.2168L103.455 32.5377L103.63 30.5455L103.806 28.5532L100.167 28.2323L99.9913 30.2245ZM95.3924 25.4545L93.5798 26.2998L94.6515 28.5982L96.4641 27.7529L98.2767 26.9077L97.205 24.6093L95.3924 25.4545ZM116.376 45.0909L114.728 43.9581L113.228 46.1399L114.876 47.2727L116.525 48.4055L118.024 46.2237L116.376 45.0909ZM114.876 47.2727L113.369 45.958L109.246 50.6853L110.753 52L112.26 53.3147L116.384 48.5874L114.876 47.2727ZM116.188 35.6364L114.827 37.1018L116.455 38.6136L117.816 37.1482L119.177 35.6828L117.55 34.171L116.188 35.6364ZM117.816 37.1482L116.455 38.6136C116.628 38.7739 116.752 38.9796 116.813 39.2071L118.744 38.6868L120.675 38.1664C120.419 37.2144 119.9 36.3538 119.177 35.6828L117.816 37.1482ZM83.5211 16V18C84.0206 18 84.5183 18.0595 85.0037 18.1772L85.475 16.2335L85.9464 14.2899C85.1523 14.0973 84.3382 14 83.5211 14V16ZM75.1403 19.2727L76.5328 20.7083C76.9375 20.3157 77.3797 19.9638 77.8532 19.6577L76.7671 17.9782L75.681 16.2988C74.9878 16.7471 74.3403 17.2624 73.7477 17.8372L75.1403 19.2727ZM81.7741 16.1862L82.1955 18.1413C82.6311 18.0473 83.0755 18 83.5211 18V16V14C82.7921 14 82.0652 14.0775 81.3526 14.2311L81.7741 16.1862ZM89.7734 101.706L88.0704 102.755C88.2094 102.981 88.3761 103.188 88.5664 103.373L89.959 101.938L91.3515 100.502C91.3995 100.548 91.4414 100.601 91.4764 100.658L89.7734 101.706ZM89.3031 100.572L87.3334 100.918C87.4375 101.51 87.6528 102.077 87.9679 102.589L89.6709 101.54L91.374 100.491C91.3237 100.41 91.2894 100.319 91.2728 100.225L89.3031 100.572ZM118.687 40.5688L120.584 41.2045C120.913 40.2229 120.945 39.166 120.675 38.1664L118.744 38.6868L116.813 39.2071C116.877 39.446 116.87 39.6986 116.791 39.9331L118.687 40.5688ZM90.9341 18.5804L89.8449 20.2578C90.3748 20.6019 90.847 21.0274 91.2442 21.5187L92.7995 20.2612L94.3547 19.0038C93.6929 18.1852 92.9061 17.4763 92.0233 16.9031L90.9341 18.5804ZM93.9004 22.0673L95.7307 21.2611C95.3739 20.4511 94.9112 19.692 94.3547 19.0038L92.7995 20.2612L91.2442 21.5187C91.5782 21.9318 91.8559 22.3874 92.0701 22.8736L93.9004 22.0673ZM90.5943 102.259L90.924 100.286C91.0851 100.313 91.2343 100.388 91.3515 100.502L89.959 101.938L88.5664 103.373C89.0322 103.825 89.6246 104.124 90.2647 104.231L90.5943 102.259ZM99.9913 30.2245L100.167 28.2323C99.9944 28.2171 99.8241 28.1825 99.6593 28.1292L99.044 30.0322L98.4287 31.9352C98.879 32.0808 99.3442 32.1752 99.8156 32.2168L99.9913 30.2245ZM90.6428 18.3913L91.732 16.7139C91.03 16.2581 90.2829 15.8757 89.5025 15.5729L88.7791 17.4375L88.0556 19.3021C88.5799 19.5055 89.0819 19.7624 89.5536 20.0687L90.6428 18.3913ZM96.6588 63.1652L95.6805 61.4208C87.4535 66.0342 83.0828 75.3788 84.8154 84.6506L86.7813 84.2833L88.7473 83.9159C87.3298 76.3299 90.9058 68.6843 97.637 64.9097L96.6588 63.1652ZM96.4641 27.7529L94.6515 28.5982C95.3923 30.1869 96.7607 31.3958 98.4287 31.9352L99.044 30.0322L99.6593 28.1292C99.0488 27.9318 98.5479 27.4893 98.2767 26.9077L96.4641 27.7529ZM113.911 33.8693L115.138 32.2893C113.336 30.8911 111.271 29.87 109.066 29.2867L108.555 31.2202L108.043 33.1537C109.729 33.5996 111.308 34.3804 112.685 35.4494L113.911 33.8693ZM99.0866 61.8037L100.065 63.5482C101.468 62.7612 102.781 61.8225 103.98 60.7491L102.646 59.2591L101.312 57.7692C100.331 58.6474 99.2567 59.4154 98.1084 60.0593L99.0866 61.8037ZM74.0157 20.7273L75.7934 21.6436C75.9423 21.3548 76.1371 21.0921 76.3704 20.8659L74.9778 19.4303L73.5853 17.9948C73.0406 18.5231 72.5856 19.1365 72.2379 19.811L74.0157 20.7273ZM77.7643 17.4545L78.6371 19.2541C79.4895 18.8406 80.3883 18.5308 81.3144 18.3312L80.8929 16.3761L80.4715 14.421C79.2332 14.6879 78.0313 15.1022 76.8915 15.655L77.7643 17.4545ZM72.9002 25.0909H74.9002C74.9002 24.1489 75.083 23.2158 75.4383 22.3433L73.5861 21.5889L71.7338 20.8344C71.1833 22.186 70.9002 23.6315 70.9002 25.0909H72.9002ZM106.168 30.7916L105.975 32.7823C106.674 32.85 107.365 32.9742 108.043 33.1537L108.555 31.2202L109.066 29.2867C108.179 29.052 107.275 28.8896 106.361 28.801L106.168 30.7916ZM68.867 29.4964L69.102 31.4825C72.2799 31.1065 74.9002 28.4382 74.9002 25.0909H72.9002H70.9002C70.9002 26.2654 69.9445 27.3549 68.632 27.5102L68.867 29.4964Z" fill="#00C951"/>
<path d="M10.0023 102.035C12.8002 96.8276 15.8578 91.6929 19.0666 86.8175L19.8315 85.6646C23.9265 79.5409 28.1592 73.99 32.2838 69.327C36.4157 64.6558 40.3218 61.0086 43.7701 58.5512C47.2782 56.0513 49.9952 55.0116 51.8499 55.0001C52.7207 54.9947 53.3516 55.2146 53.8353 55.569C54.332 55.9332 54.8163 56.5443 55.1985 57.5458C55.9884 59.6156 56.189 62.9492 55.5207 67.5501C54.8606 72.0954 53.3989 77.5659 51.1912 83.6565C49.1057 89.4101 46.4053 95.5739 43.2283 101.83L25.5539 101.939L10.0023 102.035Z" stroke="#00C951" stroke-width="4"/>
<path d="M65.6284 104C66.4569 104 67.1284 103.328 67.1284 102.5C67.1284 101.672 66.4569 101 65.6284 101V104ZM7.03735 102.5V104H65.6284V102.5V101H7.03735V102.5Z" fill="#00C951"/>
<path d="M86.6611 26.5211C86.6611 28.1805 85.3159 29.5258 83.6565 29.5258C81.997 29.5258 80.6518 28.1805 80.6518 26.5211C80.6518 24.8617 81.997 23.5164 83.6565 23.5164C85.3159 23.5164 86.6611 24.8617 86.6611 26.5211Z" fill="#00C951"/>
<path d="M71 78C72.9537 92.314 73.6324 99.923 74.1229 102.866C74.2963 103.907 75.1253 104.414 76.1675 104.58L83.7699 105.793" stroke="#00C951" stroke-width="4" stroke-linecap="round"/>
</svg>
